# xmcd CD database file
#
# Track frame offsets:
#	150
#	15679
#	34512
#	51615
#	67705
#	86544
#	100422
#	118997
#	138040
#	154299
#	170148
#	186550
#
# Disc length: 2653 seconds
#
# Revision: 0
# Processed by: cddbd v1.5.2PL0 Copyright (c) Steve Scherf et al.
# Submitted via: CDex 1.70beta2
#
DISCID=a70a5b0c
DTITLE=Fabrizio and the Fever - Nunchuck Fury
DYEAR=2014
DGENRE=Blues
TTITLE0=Bubbly
TTITLE1=California
TTITLE2=Lately I've Been Waiting
TTITLE3=Eloise
TTITLE4=Bag of Harps
TTITLE5=Blood Bizzness
TTITLE6=Second Street
TTITLE7=Shattered Glass
TTITLE8=She Was
TTITLE9=With Me
TTITLE10=Pirate Swagger
TTITLE11=Porch Time
EXTD=YEAR: 2014
EXTT0=
EXTT1=
EXTT2=
EXTT3=
EXTT4=
EXTT5=
EXTT6=
EXTT7=
EXTT8=
EXTT9=
EXTT10=
EXTT11=
PLAYORDER=
